<!DOCTYPE svg PUBLIC "-//W3C//DTD SVG 20010904//EN" "http://www.w3.org/TR/2001/REC-SVG-20010904/DTD/svg10.dtd">
<svg version="1.0" xmlns="http://www.w3.org/2000/svg" width="1920px" height="510px" viewBox="0 0 12000 3190" preserveAspectRatio="xMidYMid meet">
<g id="layer101" fill="#4d4766" stroke="none">
<path d="M8875 2712 c-38 -2 -74 -7 -79 -13 -6 -5 -23 -9 -38 -9 -15 0 -28 -4 -28 -10 0 -5 -7 -10 -15 -10 -18 0 -89 -32 -93 -42 -2 -5 -9 -8 -16 -8 -7 0 -19 -11 -26 -25 -7 -13 -17 -22 -22 -19 -4 3 -8 1 -8 -4 0 -5 -16 -24 -35 -43 -36 -36 -107 -167 -99 -181 3 -5 -2 -11 -10 -14 -11 -4 -16 -19 -16 -45 0 -21 -4 -39 -10 -39 -5 0 -10 -25 -10 -55 0 -30 -4 -55 -10 -55 -6 0 -10 -41 -10 -103 0 -142 -7 -137 208 -137 167 0 169 0 190 25 18 20 22 38 22 89 0 36 5 68 10 71 6 3 10 19 10 36 0 16 5 29 10 29 6 0 10 9 10 21 0 12 15 36 33 53 77 77 213 48 267 -58 21 -41 21 -281 0 -322 -18 -36 -35 -54 -49 -54 -6 0 -11 -4 -11 -10 0 -5 -9 -10 -20 -10 -11 0 -20 -4 -20 -8 0 -5 -43 -12 -95 -15 -140 -9 -135 -1 -135 -224 l0 -183 41 0 c24 0 38 -4 34 -10 -4 -6 22 -10 69 -10 44 0 76 -4 76 -10 0 -5 7 -10 16 -10 20 0 38 -18 63 -64 17 -30 21 -54 21 -131 0 -57 -4 -95 -10 -95 -5 0 -10 -7 -10 -15 0 -16 -10 -31 -43 -64 -22 -22 -78 -33 -130 -24 -46 7 -97 63 -97 105 0 16 -4 28 -10 28 -6 0 -10 30 -10 70 0 40 -4 70 -10 70 -5 0 -10 5 -10 11 0 6 -7 17 -15 25 -11 12 -46 14 -182 12 -162 -3 -168 -4 -179 -25 -6 -13 -14 -20 -17 -16 -4 3 -7 -23 -7 -58 0 -45 3 -60 10 -49 7 10 10 -9 10 -62 0 -42 5 -80 10 -83 6 -3 10 -19 10 -35 0 -16 9 -45 20 -65 11 -20 20 -42 20 -50 0 -8 5 -15 10 -15 6 0 10 -7 10 -16 0 -16 38 -76 52 -82 4 -2 8 -8 8 -13 0 -6 11 -21 24 -34 14 -14 29 -31 33 -38 17 -27 152 -107 181 -107 10 0 23 -5 29 -11 7 -7 65 -11 158 -11 93 0 151 4 158 11 6 6 21 11 33 11 13 0 26 5 29 10 3 6 15 10 25 10 10 0 20 3 22 8 2 4 21 16 43 27 43 22 151 127 161 157 3 10 10 18 15 18 5 0 9 9 9 20 0 11 5 20 10 20 6 0 10 9 10 20 0 11 5 20 10 20 6 0 10 9 10 20 0 11 4 28 9 38 5 9 15 42 21 72 17 80 2 360 -19 360 -4 0 -12 20 -20 44 -7 24 -21 53 -32 65 -10 11 -19 25 -19 31 0 6 -11 22 -24 35 l-24 24 36 39 c67 71 112 143 112 180 0 12 5 24 10 27 6 3 10 19 10 36 0 16 4 29 9 29 9 0 23 125 23 200 -1 80 -14 190 -23 190 -5 0 -9 18 -9 40 0 22 -4 40 -10 40 -5 0 -10 12 -10 26 0 25 -57 146 -72 152 -5 2 -8 10 -8 18 0 34 -141 173 -200 198 -25 10 -53 22 -62 27 -10 5 -26 9 -36 9 -10 0 -22 4 -27 9 -11 10 -148 17 -250 13z"/>
<path d="M10135 2712 c-33 -2 -64 -7 -69 -13 -6 -5 -17 -9 -25 -9 -21 0 -131 -52 -131 -62 0 -4 -5 -8 -11 -8 -11 0 -97 -90 -113 -119 -5 -9 -14 -19 -20 -23 -7 -5 -7 -8 -1 -8 6 0 5 -4 -1 -8 -21 -13 -82 -139 -89 -183 -4 -24 -11 -48 -15 -54 -4 -5 -10 -27 -14 -47 -4 -21 -11 -38 -16 -38 -6 0 -10 -18 -10 -39 0 -22 -4 -42 -8 -45 -33 -20 -33 -862 0 -882 4 -3 8 -24 8 -47 0 -23 7 -51 15 -61 8 -11 15 -32 15 -47 0 -15 4 -30 9 -33 4 -3 11 -28 15 -55 4 -28 11 -53 16 -56 6 -3 10 -17 10 -31 0 -13 5 -24 10 -24 6 0 10 -7 10 -15 0 -8 5 -15 10 -15 6 0 10 -7 10 -15 0 -16 39 -77 53 -83 4 -2 7 -9 7 -14 0 -11 24 -39 89 -103 28 -28 113 -76 186 -105 65 -26 355 -9 355 21 0 5 7 9 15 9 22 0 107 50 135 80 75 81 91 104 121 162 17 34 35 64 40 66 5 2 9 19 9 37 0 19 4 36 9 39 16 10 24 164 11 196 l-12 30 -180 0 c-187 0 -208 -5 -208 -44 0 -9 -4 -16 -10 -16 -5 0 -10 -13 -10 -30 0 -16 -4 -30 -10 -30 -5 0 -10 -9 -10 -20 0 -43 -64 -75 -133 -63 -54 8 -89 46 -126 136 -6 15 -15 37 -20 50 -5 12 -12 42 -15 67 -3 25 -9 61 -12 80 l-7 34 26 -17 c15 -9 33 -17 42 -17 8 0 15 -4 15 -10 0 -5 11 -10 25 -10 14 0 25 -4 25 -10 0 -6 48 -10 125 -10 77 0 125 4 125 10 0 6 14 10 30 10 17 0 30 5 30 10 0 6 9 10 20 10 11 0 20 5 20 10 0 6 7 10 15 10 8 0 15 5 15 10 0 6 5 10 10 10 14 0 130 114 130 127 0 6 11 23 25 39 14 16 28 39 31 51 4 13 10 20 15 17 5 -3 9 6 9 20 0 14 4 27 9 31 6 3 13 27 17 53 3 26 10 52 14 57 5 6 12 53 17 105 7 81 9 48 15 -225 7 -333 14 -434 29 -450 5 -5 9 -28 9 -51 0 -24 5 -46 10 -49 6 -3 10 -24 10 -45 0 -21 5 -42 10 -45 6 -3 10 -17 10 -30 0 -13 4 -26 9 -29 5 -4 12 -24 16 -46 4 -22 11 -40 16 -40 5 0 9 -9 9 -19 0 -11 7 -27 16 -35 8 -9 13 -16 9 -16 -4 0 0 -6 7 -14 7 -8 24 -28 38 -46 36 -46 73 -83 95 -97 48 -29 120 -63 135 -63 9 0 21 -5 27 -11 16 -16 290 -16 306 0 6 6 18 11 27 11 21 0 70 23 70 33 0 4 8 7 19 7 10 0 24 7 31 15 7 8 17 15 23 15 5 0 18 10 29 23 11 12 33 37 50 56 36 39 110 179 102 192 -3 5 2 12 10 15 10 4 16 18 16 39 0 19 5 37 10 40 6 3 10 22 10 41 0 19 5 34 10 34 7 0 10 205 10 594 0 386 -4 597 -10 601 -5 3 -10 22 -10 41 0 19 -4 34 -10 34 -5 0 -10 16 -10 35 0 19 -4 35 -10 35 -5 0 -10 6 -10 14 0 7 -17 47 -38 88 -38 72 -65 110 -125 170 -30 31 -139 88 -167 88 -9 0 -21 5 -27 11 -14 14 -292 14 -306 0 -6 -6 -21 -11 -34 -11 -13 0 -23 -4 -23 -10 0 -5 -7 -10 -15 -10 -20 0 -85 -32 -85 -42 0 -4 -5 -8 -11 -8 -16 0 -135 -133 -127 -143 2 -2 -5 -11 -14 -21 -10 -10 -18 -23 -18 -31 0 -7 -7 -26 -15 -41 -8 -16 -15 -37 -15 -46 0 -10 -4 -18 -10 -18 -5 0 -10 -13 -10 -29 0 -17 -4 -32 -9 -35 -5 -3 -11 -23 -14 -43 -3 -21 -11 -63 -17 -93 -9 -46 -21 -129 -31 -215 -1 -11 -6 16 -10 60 -14 156 -22 215 -29 215 -4 0 -10 23 -14 51 -4 28 -11 58 -15 67 -5 10 -17 36 -26 60 -10 23 -22 42 -27 42 -4 0 -8 9 -8 19 0 11 -3 21 -7 23 -5 2 -16 19 -26 38 -20 40 -111 140 -127 140 -5 0 -10 3 -10 8 0 4 -19 15 -43 26 -23 10 -50 22 -59 27 -10 5 -26 9 -36 9 -10 0 -22 4 -27 9 -12 10 -143 18 -230 13z m129 -452 c26 0 86 -72 86 -105 0 -8 5 -15 10 -15 6 0 10 -13 10 -30 0 -16 5 -53 11 -81 9 -40 8 -77 -2 -156 -7 -57 -16 -103 -21 -103 -4 0 -8 -6 -8 -12 0 -7 -20 -35 -44 -62 -43 -49 -43 -49 -106 -49 -59 0 -64 2 -101 39 -21 21 -38 45 -39 52 0 6 -4 12 -10 12 -5 0 -10 13 -10 28 0 15 -5 33 -11 39 -6 6 -9 54 -6 134 5 131 13 189 28 189 5 0 9 7 9 15 0 8 9 25 19 37 11 13 28 33 38 45 20 23 60 33 107 27 16 -2 34 -4 40 -4z m1240 -14 c18 -20 36 -55 36 -71 0 -8 5 -15 10 -15 6 0 10 -13 10 -29 0 -17 5 -33 10 -36 6 -3 10 -41 11 -83 0 -52 3 -71 9 -57 5 12 9 -142 9 -368 1 -256 -2 -386 -9 -382 -6 4 -10 -20 -10 -64 0 -38 -4 -73 -10 -76 -5 -3 -10 -17 -10 -31 0 -13 -4 -24 -10 -24 -5 0 -10 -10 -10 -22 0 -13 -11 -36 -25 -51 -20 -24 -33 -29 -72 -30 -60 -2 -113 19 -113 44 0 11 -4 19 -9 19 -5 0 -11 10 -14 22 -3 13 -11 41 -17 63 -28 95 -33 175 -33 520 1 357 6 471 24 490 5 5 9 24 9 41 0 18 5 36 10 39 6 3 10 15 10 26 0 11 5 25 10 32 6 7 18 22 28 34 10 11 29 23 42 26 35 7 102 -3 114 -17z"/>
</g>
<g id="layer102" fill="#ffffff" stroke="none">
<path d="M3275 2733 c-11 -3 -24 -9 -29 -14 -6 -5 -18 -9 -28 -9 -10 0 -18 -4 -18 -10 0 -5 -9 -10 -20 -10 -11 0 -20 -3 -20 -8 0 -4 -14 -13 -32 -21 -30 -14 -178 -156 -178 -172 0 -4 -6 -14 -12 -21 -14 -15 -23 -30 -64 -109 -33 -62 -54 -116 -54 -141 0 -10 -4 -18 -10 -18 -5 0 -10 -13 -10 -29 0 -17 -4 -33 -10 -36 -5 -3 -10 -22 -10 -41 0 -19 -4 -34 -10 -34 -6 0 -10 -27 -10 -60 0 -33 -4 -60 -9 -60 -6 0 -12 -51 -15 -112 -3 -62 -8 -160 -12 -217 -3 -68 -2 -107 5 -114 7 -7 11 -56 11 -119 0 -65 4 -108 10 -108 6 0 10 -26 10 -59 0 -33 5 -63 10 -66 6 -3 10 -19 10 -35 0 -16 5 -32 10 -35 6 -3 10 -19 10 -36 0 -16 5 -29 10 -29 6 0 10 -11 10 -25 0 -14 4 -33 9 -43 5 -9 21 -42 35 -72 31 -65 56 -109 74 -128 6 -7 12 -17 12 -22 0 -5 31 -40 70 -79 71 -72 138 -121 165 -121 8 0 15 -4 15 -10 0 -5 7 -10 15 -10 8 0 23 -4 33 -9 48 -25 104 -32 217 -28 127 5 185 14 185 28 0 5 6 9 14 9 8 0 38 12 67 28 73 37 248 214 249 250 0 6 4 12 8 12 10 0 48 80 44 93 -1 4 5 10 13 13 8 4 15 17 15 30 0 13 5 24 10 24 6 0 10 7 10 15 0 8 4 23 9 33 16 32 30 86 37 147 3 33 10 65 14 70 11 14 18 75 31 248 11 149 2 367 -21 482 -10 55 -38 194 -47 238 -3 15 -9 30 -14 33 -5 3 -9 14 -9 25 0 10 -4 19 -10 19 -5 0 -10 12 -10 26 0 14 -4 23 -10 19 -5 -3 -11 -1 -11 4 -3 23 -5 28 -23 69 -10 23 -23 42 -28 42 -4 0 -8 6 -8 13 0 28 -155 193 -210 223 -19 10 -37 21 -40 24 -3 3 -25 16 -50 30 -42 23 -55 24 -215 26 -93 2 -179 0 -190 -3z m246 -469 c39 -8 132 -93 154 -141 50 -110 63 -142 74 -186 6 -26 11 -63 11 -82 0 -18 5 -37 10 -40 6 -4 10 -85 10 -210 0 -125 -4 -206 -10 -210 -5 -3 -10 -22 -10 -40 0 -69 -24 -142 -88 -270 -28 -57 -114 -135 -148 -135 -13 0 -26 -4 -29 -10 -8 -13 -85 -13 -85 0 0 6 -11 10 -25 10 -14 0 -34 8 -46 17 -50 41 -109 108 -109 123 0 14 -34 84 -42 88 -5 2 -8 19 -8 37 0 19 -4 37 -10 40 -5 3 -10 21 -10 40 0 19 -4 37 -10 40 -5 3 -10 33 -10 66 0 33 -4 59 -10 59 -6 0 -10 55 -10 145 0 90 4 145 10 145 6 0 10 26 10 59 0 33 5 63 10 66 6 3 10 22 10 41 0 19 5 34 10 34 6 0 10 13 10 28 0 16 11 52 25 80 14 29 25 56 25 62 0 15 59 81 109 123 12 9 31 17 44 17 12 0 29 5 37 10 8 6 27 8 43 5 15 -3 41 -8 58 -11z"/>
<path d="M0 1605 l0 -1105 584 0 c576 0 585 0 591 20 3 11 11 20 16 20 5 0 9 413 9 1065 0 610 -4 1065 -9 1065 -5 0 -11 9 -14 20 -5 19 -14 20 -171 20 -148 0 -169 -2 -187 -18 -19 -18 -19 -34 -17 -870 l3 -852 -232 0 -233 0 0 856 c0 728 -2 858 -14 870 -11 11 -49 14 -170 14 l-156 0 0 -1105z"/>
<path d="M1466 2685 c-14 -22 -16 -125 -16 -1080 0 -955 2 -1058 16 -1080 l16 -25 389 0 c248 0 390 4 394 10 3 6 15 10 25 10 40 0 113 42 154 89 12 13 30 33 41 45 24 25 65 102 65 122 0 8 5 14 10 14 6 0 10 9 10 19 0 11 5 23 10 26 6 3 10 22 10 41 0 19 4 34 9 34 15 0 24 117 24 310 0 188 -8 296 -24 306 -5 3 -9 16 -9 29 0 20 -11 48 -51 127 -5 10 -9 24 -9 31 0 7 -9 19 -20 27 -11 8 -20 20 -20 26 0 15 -105 124 -119 124 -6 0 -11 5 -11 10 0 6 -7 10 -15 10 -8 0 -15 5 -15 10 0 6 -9 10 -20 10 -11 0 -20 5 -20 10 0 6 -13 10 -30 10 -16 0 -30 5 -30 10 0 6 -70 10 -190 10 l-190 0 0 353 c0 330 -1 355 -18 370 -16 14 -44 17 -184 17 -165 0 -166 0 -182 -25z m654 -1205 c0 -5 8 -10 18 -10 25 -1 65 -37 56 -51 -4 -7 -3 -9 4 -5 19 11 32 -63 32 -179 0 -60 -5 -127 -11 -148 -12 -43 -58 -97 -83 -97 -9 0 -16 -4 -16 -10 0 -6 -53 -10 -137 -10 l-138 0 3 260 3 260 134 0 c83 0 135 -4 135 -10z"/>
<path d="M4396 2688 c-14 -20 -16 -140 -16 -1089 0 -1020 1 -1067 18 -1082 17 -15 69 -17 548 -17 l530 0 22 25 c21 24 22 34 22 211 0 183 0 185 -25 209 l-24 25 -356 0 -355 0 0 185 0 185 331 0 c327 0 332 0 350 22 17 19 19 40 19 213 0 173 -2 194 -19 213 -18 22 -23 22 -350 22 l-331 0 0 215 0 215 376 0 c338 0 377 2 392 17 15 14 17 45 20 213 3 181 2 197 -16 218 l-19 22 -551 0 -551 0 -15 -22z"/>
<path d="M5763 2695 c-10 -11 -13 -244 -13 -1090 0 -920 2 -1079 14 -1091 21 -21 331 -21 352 0 12 12 14 76 15 373 0 265 3 352 11 336 6 -13 15 -23 20 -23 4 0 8 -8 8 -19 0 -10 7 -24 15 -31 8 -7 15 -18 15 -24 0 -7 8 -21 18 -32 9 -10 28 -40 42 -66 13 -26 28 -44 32 -42 4 3 8 -4 8 -15 0 -12 5 -21 10 -21 6 0 10 -6 10 -13 0 -7 9 -23 20 -35 11 -12 20 -26 20 -32 0 -6 9 -20 20 -32 11 -12 20 -28 20 -35 0 -7 4 -13 9 -13 5 0 14 -14 21 -30 7 -16 16 -30 21 -30 5 0 9 -7 9 -15 0 -13 11 -30 45 -69 6 -6 20 -32 32 -59 13 -26 27 -47 32 -47 5 0 13 -9 16 -20 6 -19 15 -20 226 -20 210 0 219 1 219 19 0 11 5 23 10 26 16 10 11 41 -10 60 -11 10 -20 24 -20 32 0 8 -11 25 -24 38 -14 13 -27 34 -31 45 -4 11 -11 18 -16 15 -5 -4 -9 2 -9 13 0 10 -9 28 -20 40 -11 12 -20 24 -20 27 0 3 -9 15 -20 27 -11 12 -20 28 -20 35 0 7 -4 13 -9 13 -5 0 -14 13 -21 30 -7 16 -16 30 -20 30 -4 0 -12 11 -18 25 -7 14 -16 31 -22 38 -18 22 -60 88 -60 95 0 4 -15 25 -34 47 -19 22 -32 43 -30 47 3 4 1 8 -4 8 -5 0 -15 14 -22 30 -7 17 -16 30 -21 30 -5 0 -9 7 -9 15 0 8 -4 15 -8 15 -5 0 -15 12 -23 28 -8 15 -20 33 -26 40 -25 26 -26 63 -4 104 11 22 21 46 21 53 0 7 4 15 8 17 4 2 23 35 40 73 18 39 38 78 43 89 6 10 19 34 30 53 10 18 19 42 19 53 0 11 5 20 10 20 6 0 10 9 10 20 0 11 5 20 10 20 6 0 10 6 10 13 0 8 25 61 55 120 30 58 55 113 55 122 0 8 5 15 10 15 6 0 10 9 10 20 0 11 5 20 10 20 6 0 10 9 10 20 0 11 5 20 10 20 6 0 10 9 10 20 0 11 5 20 10 20 6 0 10 9 10 20 0 11 5 20 10 20 6 0 10 9 10 20 0 11 5 20 10 20 6 0 10 9 10 20 0 11 5 20 10 20 6 0 10 7 10 15 0 14 18 53 30 65 13 13 30 52 30 70 0 11 5 20 10 20 6 0 10 7 10 15 0 9 10 29 21 45 21 28 21 30 5 65 l-17 35 -216 -2 -215 -3 -18 -45 c-9 -24 -22 -46 -29 -48 -6 -2 -11 -12 -11 -23 0 -10 -4 -19 -10 -19 -5 0 -10 -7 -10 -15 0 -8 -4 -23 -9 -33 -43 -87 -81 -175 -81 -187 0 -8 -4 -15 -10 -15 -5 0 -10 -9 -10 -20 0 -11 -4 -20 -10 -20 -5 0 -10 -9 -10 -20 0 -11 -4 -20 -10 -20 -5 0 -10 -9 -10 -19 0 -11 -4 -23 -10 -26 -5 -3 -10 -15 -10 -26 0 -10 -4 -19 -10 -19 -5 0 -10 -6 -10 -13 0 -8 -22 -58 -50 -112 -27 -54 -50 -104 -50 -112 0 -7 -4 -13 -10 -13 -5 0 -10 -11 -10 -24 0 -30 -15 -41 -30 -24 -6 7 -26 39 -45 72 l-35 58 0 350 c0 289 -2 352 -14 364 -21 20 -335 20 -353 -1z"/>
<path d="M7512 2685 l-22 -26 2 -844 3 -845 -194 0 c-186 0 -194 -1 -212 -22 -17 -19 -19 -40 -19 -213 0 -173 2 -194 19 -213 l18 -22 592 0 c500 0 595 2 607 14 21 21 21 421 0 442 -12 11 -55 14 -215 14 l-201 0 0 856 c0 728 -2 858 -14 870 -12 11 -50 14 -178 14 -163 0 -165 0 -186 -25z"/>
</g>


</svg>