<svg width="82" height="82" viewBox="0 0 82 82" fill="none" xmlns="http://www.w3.org/2000/svg">
<circle cx="41" cy="41" r="41" fill="#C4C4C4"/>
<circle cx="41" cy="41" r="35" fill="white"/>
<path d="M61 48.5C61 50.2728 60.4956 52.0283 59.5157 53.6662C58.5357 55.3041 57.0993 56.7924 55.2886 58.0459C53.4778 59.2995 51.3282 60.2939 48.9623 60.9724C46.5965 61.6508 44.0608 62 41.5 62C38.9392 62 36.4035 61.6508 34.0377 60.9724C31.6718 60.2939 29.5222 59.2995 27.7114 58.0459C25.9007 56.7923 24.4643 55.3041 23.4843 53.6662C22.5044 52.0283 22 50.2728 22 48.5L41.5 48.5L61 48.5Z" fill="#C4C4C4"/>
<circle cx="27" cy="33" r="6" fill="#C4C4C4"/>
<circle cx="31.5" cy="37.5" r="2.5" fill="white"/>
<path d="M28 30.236C28 31.8929 26.6569 33.236 25 33.236C23.3431 33.236 22 31.8929 22 30.236C22 28.5792 23.3431 27.236 25 27.236C26.6569 27.236 28 28.5792 28 30.236Z" fill="white"/>
<circle cx="55" cy="33" r="6" fill="#C4C4C4"/>
<circle cx="60.5" cy="37.5" r="2.5" fill="white"/>
<rect x="17" y="27" width="14" height="2" transform="rotate(-30 17 27)" fill="#C4C4C4"/>
<rect x="54" y="20" width="14" height="2" transform="rotate(30 54 20)" fill="#C4C4C4"/>
<path d="M56 30C56 31.6568 54.6569 33 53 33C51.3431 33 50 31.6568 50 30C50 28.3431 51.3431 27 53 27C54.6569 27 56 28.3431 56 30Z" fill="white"/>
</svg>
