<svg width="82" height="82" viewBox="0 0 82 82" fill="none" xmlns="http://www.w3.org/2000/svg">
<path d="M0 13.1787C0 8.76043 3.58172 5.17871 8 5.17871H57.9009C62.3192 5.17871 65.9009 8.76043 65.9009 13.1787V73.9998C65.9009 78.418 62.3192 81.9998 57.9009 81.9998H8C3.58172 81.9998 0 78.418 0 73.9998V13.1787Z" fill="black"/>
<path d="M3.46847 13.6313C3.46847 10.8699 5.70704 8.63135 8.46847 8.63135H57.4324C60.1938 8.63135 62.4324 10.8699 62.4324 13.6313V73.5471C62.4324 76.3086 60.1938 78.5471 57.4324 78.5471H8.46846C5.70704 78.5471 3.46847 76.3086 3.46847 73.5471V13.6313Z" fill="#FAFAFA"/>
<path d="M16.4752 5C16.4752 2.23858 18.7138 0 21.4752 0H44.4257C47.1871 0 49.4257 2.23858 49.4257 5V8.81052C49.4257 11.5719 47.1871 13.8105 44.4257 13.8105H21.4752C18.7138 13.8105 16.4752 11.572 16.4752 8.81053V5Z" fill="black"/>
<path d="M11.2725 24.1686C11.2725 22.7384 12.4319 21.5791 13.862 21.5791H52.0389C53.469 21.5791 54.6284 22.7384 54.6284 24.1686C54.6284 25.5987 53.469 26.758 52.0389 26.758H13.862C12.4319 26.758 11.2725 25.5987 11.2725 24.1686Z" fill="black"/>
<path d="M11.2725 39.7052C11.2725 38.2751 12.4319 37.1157 13.862 37.1157H52.0389C53.469 37.1157 54.6284 38.2751 54.6284 39.7052C54.6284 41.1353 53.469 42.2947 52.0389 42.2947H13.862C12.4319 42.2947 11.2725 41.1353 11.2725 39.7052Z" fill="black"/>
<path d="M11.2725 56.1051C11.2725 54.675 12.4319 53.5156 13.862 53.5156H52.0389C53.469 53.5156 54.6284 54.675 54.6284 56.1051C54.6284 57.5352 53.469 58.6946 52.0389 58.6946H13.862C12.4319 58.6946 11.2725 57.5352 11.2725 56.1051Z" fill="black"/>
<path d="M41.3312 61.6369L40.372 62.7901L41.5296 63.7441L48.8475 69.775L50.0051 70.7289L50.9643 69.5757L78.6128 36.3322L79.5719 35.1789L78.4144 34.225L71.0964 28.1941L69.9388 27.2401L68.9797 28.3934L41.3312 61.6369Z" fill="#001AFF" stroke="#FAFAFA" stroke-width="3"/>
<path d="M39.7084 73.1046L40.8324 64.4854L48.0318 70.4789L39.7084 73.1046Z" fill="#001AFF"/>
<rect width="10.0124" height="9.50415" rx="4.75207" transform="matrix(0.647274 -0.762257 0.765171 0.643828 68.247 31.5854)" fill="#001AFF"/>
<rect width="9.55236" height="2.61129" transform="matrix(0.76747 0.641085 -0.644537 0.764573 71.2277 28.0112)" fill="#FAFAFA"/>
</svg>
