<svg width="180" height="180" viewBox="0 0 180 180" fill="none" xmlns="http://www.w3.org/2000/svg">
<rect width="180" height="180" rx="2" fill="#C4C4C4"/>
<path d="M130.879 100.056C117.392 87.9061 103.789 80.9028 90.0004 80.5167C76.1706 80.1295 62.4816 86.4055 48.8667 100.113C36.8534 112.208 35.2497 127.874 37.1987 141.555C39.1472 155.232 44.6708 167.173 47.2499 172.19C48.3383 174.308 50.5043 175.5 52.7959 175.5H127.838C130.234 175.5 132.478 174.197 133.522 171.946C135.99 166.623 141.229 154.09 142.944 140.228C144.655 126.388 142.885 110.872 130.879 100.056Z" fill="#E5E5E5" stroke="#C4C4C4" stroke-width="3"/>
<path d="M90 89.5C113.437 89.5 132.5 70.9545 132.5 48C132.5 25.0455 113.437 6.5 90 6.5C66.563 6.5 47.5 25.0455 47.5 48C47.5 70.9545 66.563 89.5 90 89.5Z" fill="#E5E5E5" stroke="#C4C4C4" stroke-width="3"/>
</svg>
