<svg width="45" height="45" viewBox="0 0 45 45" fill="none" xmlns="http://www.w3.org/2000/svg">
<g clip-path="url(#clip0)">
<path d="M0 7.84229C0 5.08087 2.23858 2.84229 5 2.84229H31.1651C33.9265 2.84229 36.1651 5.08086 36.1651 7.84229V40.0002C36.1651 42.7616 33.9265 45.0002 31.1651 45.0002H5C2.23857 45.0002 0 42.7616 0 40.0002V7.84229Z" fill="black"/>
<path d="M1.90234 8.73682C1.90234 6.52768 3.6932 4.73682 5.90234 4.73682H30.2606C32.4697 4.73682 34.2606 6.52768 34.2606 8.73682V39.1052C34.2606 41.3144 32.4697 43.1052 30.2606 43.1052H5.90234C3.6932 43.1052 1.90234 41.3144 1.90234 39.1052V8.73682Z" fill="#FAFAFA"/>
<path d="M9.04102 3.78947C9.04102 1.6966 10.7376 0 12.8305 0H23.3341C25.427 0 27.1236 1.6966 27.1236 3.78947V3.78947C27.1236 5.88234 25.427 7.57895 23.3341 7.57895H12.8305C10.7376 7.57895 9.04102 5.88234 9.04102 3.78947V3.78947Z" fill="black"/>
<path d="M6.18555 13.2628C6.18555 12.478 6.82177 11.8418 7.6066 11.8418H28.5573C29.3422 11.8418 29.9784 12.478 29.9784 13.2628V13.2628C29.9784 14.0477 29.3422 14.6839 28.5573 14.6839H7.6066C6.82177 14.6839 6.18555 14.0477 6.18555 13.2628V13.2628Z" fill="black"/>
<path d="M6.18555 21.7897C6.18555 21.0049 6.82177 20.3687 7.6066 20.3687H28.5573C29.3422 20.3687 29.9784 21.0049 29.9784 21.7897V21.7897C29.9784 22.5745 29.3422 23.2108 28.5573 23.2108H7.6066C6.82177 23.2108 6.18555 22.5745 6.18555 21.7897V21.7897Z" fill="black"/>
<path d="M6.18555 30.7897C6.18555 30.0049 6.82177 29.3687 7.6066 29.3687H28.5573C29.3422 29.3687 29.9784 30.0049 29.9784 30.7897V30.7897C29.9784 31.5745 29.3422 32.2108 28.5573 32.2108H7.6066C6.82177 32.2108 6.18555 31.5745 6.18555 30.7897V30.7897Z" fill="black"/>
<path d="M46.0095 18.7733L46.9908 17.6388L45.8563 16.6575L41.9216 13.254L40.773 12.2605L39.7938 13.4214L28.2079 27.1563L23.5817 23.4245L23.5795 23.4227L19.1854 19.8644L18.0543 18.9485L17.1047 20.0515L13.8711 23.8073L12.8662 24.9744L14.0595 25.9482L28.0219 37.3414L29.1512 38.2628L30.1047 37.1605L46.0095 18.7733Z" fill="#FF1841" stroke="#FAFAFA" stroke-width="3"/>
</g>
<defs>
<clipPath id="clip0">
<rect width="45" height="45" fill="white"/>
</clipPath>
</defs>
</svg>
