<svg width="82" height="82" viewBox="0 0 82 82" fill="none" xmlns="http://www.w3.org/2000/svg">
<circle cx="41" cy="41" r="41" fill="#C4C4C4"/>
<circle cx="41" cy="41" r="35" fill="#FAFAFA"/>
<path d="M22.7847 57.7089C23.949 54.954 26.3514 52.5277 29.6431 50.7823C32.9348 49.037 36.9444 48.0634 41.0896 48.003C45.2349 47.9426 49.3001 48.7985 52.695 50.4464C56.0898 52.0943 58.6376 54.4485 59.9683 57.1671L41.5 61.5L22.7847 57.7089Z" fill="#C4C4C4"/>
<path d="M26.1447 61.0688C26.6417 58.6216 28.3965 56.3715 31.1004 54.7141C33.8044 53.0568 37.2843 52.0983 40.9283 52.0071C44.5724 51.916 48.1471 52.6982 51.0241 54.216C53.901 55.7338 55.8958 57.8902 56.6578 60.3059L41.5 62.5L26.1447 61.0688Z" fill="#FAFAFA"/>
<circle cx="27" cy="33" r="6" fill="#C4C4C4"/>
<circle cx="31.5" cy="37.5" r="2.5" fill="#FAFAFA"/>
<path d="M28 30.2363C28 31.8931 26.6569 33.2363 25 33.2363C23.3431 33.2363 22 31.8931 22 30.2363C22 28.5794 23.3431 27.2363 25 27.2363C26.6569 27.2363 28 28.5794 28 30.2363Z" fill="#FAFAFA"/>
<circle cx="55" cy="33" r="6" fill="#C4C4C4"/>
<circle cx="60.5" cy="37.5" r="2.5" fill="#FAFAFA"/>
<rect x="17" y="27" width="14" height="2" transform="rotate(-30 17 27)" fill="#C4C4C4"/>
<rect x="54" y="20" width="14" height="2" transform="rotate(30 54 20)" fill="#C4C4C4"/>
<path d="M56 30C56 31.6568 54.6569 33 53 33C51.3431 33 50 31.6568 50 30C50 28.3431 51.3431 27 53 27C54.6569 27 56 28.3431 56 30Z" fill="#FAFAFA"/>
</svg>
