<svg width="90" height="89" viewBox="0 0 90 89" fill="none" xmlns="http://www.w3.org/2000/svg">
<path d="M83.5359 36.7472C79.5546 32.9631 75.3892 30.6343 71.0323 30.5056C66.6296 30.3755 62.4039 32.4993 58.3494 36.8063C55.1543 40.2003 54.3417 44.4182 54.5243 48.2411C54.7062 52.0499 55.877 55.6034 56.8165 57.905C57.7643 60.2266 60.045 61.5 62.3838 61.5H79.694C82.1358 61.5 84.4855 60.1135 85.3851 57.6746C86.2726 55.2687 87.3644 51.5986 87.4884 47.7892C87.6123 43.9803 86.7691 39.8203 83.5359 36.7472Z" fill="black" stroke="#FAFAFA" stroke-width="3"/>
<circle cx="71" cy="22" r="13.5" fill="black" stroke="#FAFAFA" stroke-width="3"/>
<path d="M31.5359 36.7472C27.5546 32.9631 23.3892 30.6343 19.0323 30.5056C14.6296 30.3755 10.4039 32.4993 6.34943 36.8063C3.15429 40.2003 2.34166 44.4182 2.52426 48.2411C2.70619 52.0499 3.87698 55.6034 4.81653 57.905C5.76427 60.2266 8.04499 61.5 10.3838 61.5H27.694C30.1358 61.5 32.4855 60.1135 33.3851 57.6746C34.2726 55.2687 35.3644 51.5986 35.4884 47.7892C35.6123 43.9803 34.7691 39.8203 31.5359 36.7472Z" fill="black" stroke="#FAFAFA" stroke-width="3"/>
<circle cx="19" cy="22" r="13.5" fill="black" stroke="#FAFAFA" stroke-width="3"/>
<path d="M62.2351 38.6054C56.8369 33.6445 51.2725 30.6712 45.5264 30.5071C39.7378 30.3417 34.1094 33.0343 28.6288 38.6634C24.1451 43.2686 23.1734 49.0727 23.5867 54.2797C23.9989 59.4715 25.7937 64.2323 27.0528 67.0314C28.0569 69.2634 30.287 70.5 32.5974 70.5H58.5619C60.9762 70.5 63.2788 69.1517 64.2363 66.7954C65.4315 63.8541 67.1154 58.9115 67.4433 53.6974C67.7711 48.4857 66.7513 42.7559 62.2351 38.6054Z" fill="black" stroke="#FAFAFA" stroke-width="3"/>
<path d="M45.5 36.5C55.3973 36.5 63.5 28.7082 63.5 19C63.5 9.29184 55.3973 1.5 45.5 1.5C35.6027 1.5 27.5 9.29184 27.5 19C27.5 28.7082 35.6027 36.5 45.5 36.5Z" fill="black" stroke="#FAFAFA" stroke-width="3"/>
<path d="M58.5 85.288V86.788L60 86.7812L69.4828 86.7386L70.9827 86.7319V85.2319V41.9934V40.4934L69.4828 40.5001L60 40.5427L58.5 40.5495V42.0495V85.288Z" fill="#001AFF" stroke="#FAFAFA" stroke-width="3"/>
<path d="M4.3457 54.5404L2.48288 54.0992L2.50006 56.0135L2.58083 65.0135L2.59164 66.2183L3.77049 66.4676L22.6897 70.4676L22.7577 70.4819L22.8267 70.49L44.3267 72.99L44.4926 73.0092L44.6587 72.9916L68.1587 70.4916L68.2428 70.4826L68.3254 70.4643L86.3254 66.4643L87.5108 66.2008L87.4999 64.9865L87.4192 55.9865L87.4021 54.081L85.5539 54.5452L67.7521 59.0157L44.5059 60.9941L23.2435 59.0162L4.3457 54.5404Z" fill="black" stroke="#FAFAFA" stroke-width="3"/>
<path d="M42.9574 57.5171H41.4574L41.4641 59.0171L41.5067 68.4998L41.5135 69.9998H43.0135H86.252H87.752L87.7452 68.4998L87.7026 59.0171L87.6959 57.5171H86.1959H42.9574Z" fill="#001AFF" stroke="#FAFAFA" stroke-width="3"/>
<path d="M60 85.2812V42.0427L69.4828 42.0001V85.2386L60 85.2812Z" fill="#001AFF"/>
<path d="M60 85.2812V42.0427L69.4828 42.0001V85.2386L60 85.2812Z" stroke="#FAFAFA"/>
</svg>
