<svg width="89" height="89" viewBox="0 0 89 89" fill="none" xmlns="http://www.w3.org/2000/svg">
<path d="M82.5359 36.7472C78.5546 32.9631 74.3892 30.6343 70.0323 30.5056C65.6296 30.3755 61.4039 32.4993 57.3494 36.8063C54.1543 40.2003 53.3417 44.4182 53.5243 48.2411C53.7062 52.0499 54.877 55.6034 55.8165 57.905C56.7643 60.2266 59.045 61.5 61.3838 61.5H78.694C81.1358 61.5 83.4855 60.1135 84.3851 57.6746C85.2726 55.2687 86.3644 51.5986 86.4884 47.7892C86.6123 43.9803 85.7691 39.8203 82.5359 36.7472Z" fill="black" stroke="#FAFAFA" stroke-width="3"/>
<circle cx="70" cy="22" r="13.5" fill="black" stroke="#FAFAFA" stroke-width="3"/>
<path d="M30.5359 36.7472C26.5546 32.9631 22.3892 30.6343 18.0323 30.5056C13.6296 30.3755 9.40392 32.4993 5.34943 36.8063C2.15429 40.2003 1.34166 44.4182 1.52426 48.2411C1.70619 52.0499 2.87698 55.6034 3.81653 57.905C4.76427 60.2266 7.04499 61.5 9.38375 61.5H26.694C29.1358 61.5 31.4855 60.1135 32.3851 57.6746C33.2726 55.2687 34.3644 51.5986 34.4884 47.7892C34.6123 43.9803 33.7691 39.8203 30.5359 36.7472Z" fill="black" stroke="#FAFAFA" stroke-width="3"/>
<circle cx="18" cy="22" r="13.5" fill="black" stroke="#FAFAFA" stroke-width="3"/>
<path d="M61.2351 38.6054C55.8369 33.6445 50.2725 30.6712 44.5264 30.5071C38.7378 30.3417 33.1094 33.0343 27.6288 38.6634C23.1451 43.2686 22.1734 49.0727 22.5867 54.2797C22.9989 59.4715 24.7937 64.2323 26.0528 67.0314C27.0569 69.2634 29.287 70.5 31.5974 70.5H57.5619C59.9762 70.5 62.2788 69.1517 63.2363 66.7954C64.4315 63.8541 66.1154 58.9115 66.4433 53.6974C66.7711 48.4857 65.7513 42.7559 61.2351 38.6054Z" fill="black" stroke="#FAFAFA" stroke-width="3"/>
<path d="M44.5 36.5C54.3973 36.5 62.5 28.7082 62.5 19C62.5 9.29184 54.3973 1.5 44.5 1.5C34.6027 1.5 26.5 9.29184 26.5 19C26.5 28.7082 34.6027 36.5 44.5 36.5Z" fill="black" stroke="#FAFAFA" stroke-width="3"/>
<path d="M57.5 85.288V86.788L59 86.7812L68.4828 86.7386L69.9827 86.7319V85.2319V41.9934V40.4934L68.4828 40.5001L59 40.5427L57.5 40.5495V42.0495V85.288Z" fill="#FF1841" stroke="#FAFAFA" stroke-width="3"/>
<path d="M41.9574 57.5171H40.4574L40.4641 59.0171L40.5067 68.4998L40.5135 69.9998H42.0135H85.252H86.752L86.7452 68.4998L86.7026 59.0171L86.6959 57.5171H85.1959H41.9574Z" fill="#FF1841" stroke="#FAFAFA" stroke-width="3"/>
<path d="M59 85.2812V42.0427L68.4828 42.0001V85.2386L59 85.2812Z" fill="#FF1841"/>
<path d="M59 85.2812V42.0427L68.4828 42.0001V85.2386L59 85.2812Z" stroke="#FAFAFA"/>
</svg>
