<svg width="120" height="30" viewBox="0 0 120 30" fill="none" xmlns="http://www.w3.org/2000/svg">
<path d="M15.3098 27.8747C15.2252 27.8465 15.1217 27.743 15.0935 27.649C15.0653 27.5549 14.9524 27.4421 14.8584 27.4139C14.7644 27.3857 14.6515 27.2728 14.6233 27.1694C14.5857 27.0753 14.5292 26.9907 14.4822 26.9907C14.2377 26.9907 14.1155 25.6458 14.2941 24.9969C14.4446 24.4609 15.3568 23.6051 15.7706 23.6051H15.9869V20.464V17.323L15.6954 17.2195C15.5261 17.1631 15.3756 17.1161 15.3662 17.1161C15.3474 17.1161 14.9054 17.5393 14.3976 18.0659C13.2879 19.1944 13.4101 19.0722 12.7518 19.7399C12.1311 20.3606 12.1781 20.3136 11.6233 20.8402C11.2001 21.2446 11.0966 21.4703 11.2847 21.5831C11.3412 21.6114 11.3788 21.9969 11.3788 22.4389C11.3788 22.8998 11.3412 23.2289 11.2847 23.2289C11.2377 23.2289 11.1907 23.2759 11.1907 23.3418C11.1907 23.5205 10.7863 24.0753 10.6076 24.1317C10.523 24.16 10.4195 24.254 10.3913 24.348C10.2973 24.6584 9.05589 24.8371 8.34116 24.6302C7.87094 24.4985 7.05276 23.8214 7.05276 23.5581C7.05276 23.4922 6.99633 23.417 6.9399 23.3888C6.85526 23.37 6.81765 23.0879 6.81765 22.4295C6.81765 21.7712 6.85526 21.4891 6.9399 21.4609C6.99633 21.4421 7.05276 21.3763 7.05276 21.3198C7.05276 21.1129 7.75809 20.4546 8.18128 20.2665C8.72674 20.022 9.62956 20.0126 9.98693 20.2477L10.2314 20.417L12.3192 18.3386C14.2659 16.3825 14.3976 16.2321 14.3412 15.9781L14.2753 15.7054H11.1625H8.04022L7.90856 16.0157C7.83332 16.1756 7.57 16.5142 7.32548 16.7587C6.95871 17.1161 6.77062 17.2195 6.32862 17.3136C5.51984 17.4828 4.74868 17.2665 4.18442 16.7023C3.94931 16.4766 3.76122 16.2415 3.76122 16.185C3.76122 16.1286 3.7236 16.0816 3.66718 16.0816C3.52611 16.0816 3.54492 14.1349 3.68599 13.9562C4.05276 13.5236 4.54178 13.0722 4.66404 13.0722C4.73928 13.0722 4.7957 13.0346 4.7957 12.9875C4.7957 12.9405 5.012 12.8465 5.27533 12.79C5.66091 12.696 5.8678 12.696 6.2816 12.79C6.56373 12.8559 6.85526 12.9499 6.9305 13.0157C7.46655 13.4672 7.7957 13.8245 7.92736 14.1349L8.09664 14.4828H11.1907C14.1155 14.4828 14.2941 14.4734 14.2941 14.3136C14.2941 14.2195 14.3412 14.0973 14.3976 14.0408C14.501 13.9374 14.3882 13.7399 13.9462 13.3167C13.8333 13.2132 13.5794 12.9593 13.3819 12.7712C13.1844 12.5737 12.9117 12.301 12.78 12.16C12.639 12.0095 12.4509 11.8308 12.3568 11.7368C12.2534 11.6521 12.0465 11.4452 11.8772 11.2665C11.7079 11.0973 11.4352 10.8245 11.2659 10.6552C11.0966 10.486 10.8145 10.2038 10.6358 10.0252L10.3161 9.696L10.0151 9.87468C9.84586 9.97813 9.60135 10.0628 9.46028 10.0628C9.32862 10.0628 9.21577 10.1098 9.21577 10.1568C9.21577 10.2132 9.09351 10.2509 8.93363 10.2509C8.78316 10.2509 8.6515 10.2132 8.6515 10.1568C8.6515 10.1098 8.53865 10.0628 8.40699 10.0628C8.10605 10.0628 7.5794 9.76183 7.17501 9.34804C6.86467 9.03769 6.58254 8.28534 6.58254 7.7681C6.58254 7.43895 6.84586 6.6866 7.02454 6.50791C7.09037 6.44208 7.19382 6.31042 7.25965 6.22578C7.41953 6.00008 8.05903 5.64271 8.28473 5.64271C8.37878 5.64271 8.46341 5.60509 8.46341 5.54867C8.46341 5.50164 8.67972 5.45462 8.93363 5.45462C9.19696 5.45462 9.40385 5.50164 9.40385 5.54867C9.40385 5.60509 9.48849 5.64271 9.58254 5.64271C9.95871 5.64271 10.9086 6.33863 10.9086 6.61136C10.9086 6.6866 10.9556 6.77124 11.0026 6.79004C11.1907 6.84647 11.3318 7.87155 11.2189 8.29475L11.1155 8.68973L13.3161 10.8904C14.5292 12.1035 15.5167 13.0534 15.5167 12.9969C15.5167 12.9499 15.6202 12.8747 15.7518 12.8465L15.9869 12.79L15.9681 9.67719L15.9399 6.56434L15.5637 6.43268C15.3568 6.36685 15.1781 6.2634 15.1593 6.20697C15.1405 6.15995 15.0747 6.11293 15.0183 6.11293C14.8114 6.11293 14.3035 5.23832 14.2377 4.77751C14.1155 3.9123 14.3035 3.20697 14.7549 2.78378C15.1405 2.42641 15.244 2.35117 15.3286 2.35117C15.385 2.35117 15.4227 2.31356 15.4227 2.25713C15.4227 2.2007 15.8459 2.16309 16.5042 2.16309C17.1625 2.16309 17.5857 2.2007 17.5857 2.25713C17.5857 2.31356 17.6421 2.35117 17.7079 2.35117C17.8584 2.36058 18.338 2.78378 18.338 2.91544C18.338 2.97186 18.4039 3.03769 18.4791 3.06591C18.5543 3.10352 18.6202 3.19757 18.6202 3.29161C18.6202 3.38566 18.6672 3.4797 18.733 3.49851C18.8929 3.55494 18.8929 5.09725 18.733 5.15368C18.6766 5.17249 18.6202 5.23832 18.6202 5.31356C18.6202 5.50164 17.7173 6.38566 17.454 6.45149L17.2095 6.50791V9.696C17.2095 12.3857 17.2283 12.8841 17.3412 12.8841C17.4164 12.8841 17.4916 12.9311 17.5104 12.9875C17.5292 13.0534 18.5167 12.1317 19.7111 10.9374L21.8741 8.78378L21.7894 8.45462C21.6107 7.78691 21.8553 6.70541 22.2879 6.29161C22.57 6.01889 23.2189 5.64271 23.4164 5.64271C23.5198 5.64271 23.6045 5.60509 23.6045 5.54867C23.6045 5.50164 23.8208 5.45462 24.0747 5.45462C24.338 5.45462 24.5449 5.50164 24.5449 5.54867C24.5449 5.60509 24.6484 5.64271 24.78 5.64271C24.9117 5.64271 25.0151 5.68033 25.0151 5.71794C25.0151 5.75556 25.1656 5.84961 25.3443 5.91544C25.523 5.98127 25.7111 6.11293 25.7675 6.20697C25.8145 6.30102 25.918 6.43268 25.9744 6.50791C26.2659 6.80885 26.3788 7.19443 26.3788 7.84334C26.3694 8.37939 26.3223 8.58628 26.1437 8.88722C25.7487 9.55493 25.0716 10.0628 24.6013 10.0628C24.4697 10.0628 24.3568 10.1098 24.3568 10.1568C24.3568 10.2132 24.2346 10.2509 24.0747 10.2509C23.9242 10.2509 23.7926 10.2132 23.7926 10.1568C23.7926 10.1098 23.6797 10.0628 23.5481 10.0628C23.407 10.0628 23.1625 9.97813 23.0026 9.87468L22.7017 9.696L22.4289 10.0346C22.2691 10.2226 22.0904 10.4201 22.0245 10.4766C21.9305 10.5518 20.6797 11.8026 19.9838 12.4985C19.9368 12.5549 19.6452 12.8277 19.3537 13.1192C19.0528 13.4013 18.8082 13.6835 18.8082 13.7305C18.8082 13.7775 18.7236 13.8433 18.6107 13.8715L18.4227 13.9374L18.6107 14.1067C18.7236 14.1913 18.8082 14.3136 18.8082 14.3794C18.8082 14.4546 19.664 14.4828 21.9117 14.4828C24.686 14.4828 25.0151 14.464 25.0151 14.3324C25.0151 14.0126 25.8333 13.0722 26.106 13.0722C26.1813 13.0722 26.2377 13.0346 26.2377 12.9875C26.2377 12.9405 26.4634 12.8465 26.7455 12.7806C27.1405 12.696 27.3568 12.696 27.733 12.79C27.9963 12.8465 28.2126 12.9405 28.2126 12.9875C28.2126 13.0346 28.2691 13.0722 28.3349 13.0722C28.523 13.0722 28.965 13.4672 29.2095 13.8433C29.407 14.1537 29.4352 14.3136 29.4352 15.0471C29.4352 15.8559 29.4164 15.9311 29.1343 16.3731C28.965 16.627 28.7487 16.8621 28.664 16.8904C28.57 16.9186 28.4948 16.975 28.4948 17.0126C28.4948 17.1443 27.6954 17.3512 27.1781 17.3512C26.6609 17.3418 26.106 17.1819 25.8897 16.9656C25.8239 16.8998 25.7393 16.8339 25.7017 16.8151C25.57 16.7681 25.0151 15.9593 25.0151 15.8277C25.0151 15.7336 24.4039 15.7054 21.9493 15.7054C18.7988 15.7054 18.6202 15.7242 18.6202 16.0816C18.6202 16.1474 19.5512 17.1255 20.6797 18.2634L22.7487 20.323L23.059 20.1631C23.2659 20.0502 23.5951 19.9938 24.0747 19.9938C24.6672 19.9844 24.8365 20.022 25.1562 20.2195C25.6076 20.5016 25.7393 20.6239 26.0966 21.16C26.3506 21.5361 26.3788 21.6584 26.3788 22.2885C26.3694 22.9468 26.3506 23.0314 26.012 23.5299C25.8145 23.8308 25.5794 24.0941 25.4948 24.1223C25.4007 24.1505 25.2314 24.2634 25.0998 24.3857C24.9023 24.5643 24.78 24.5926 24.0371 24.5926C23.4446 24.5926 23.1813 24.5549 23.1625 24.4797C23.1343 24.4139 23.0778 24.3574 23.0214 24.3574C22.9744 24.3574 22.8803 24.301 22.8145 24.2446C22.7487 24.1788 22.5794 24.0377 22.4383 23.9342C21.9023 23.5393 21.6107 22.486 21.7988 21.6396C21.8929 21.254 21.8835 21.2164 21.6672 21.0283C21.5355 20.9154 21.2722 20.6709 21.0841 20.4734C20.6797 20.0502 20.454 19.8245 19.965 19.3543C19.7675 19.1568 19.4948 18.8841 19.3631 18.743C19.222 18.5926 19.0339 18.4139 18.9399 18.3198C18.8365 18.2352 18.6107 18.0189 18.4321 17.8308C17.7549 17.1255 17.7267 17.0973 17.4634 17.1631L17.2095 17.2289V20.417C17.2095 22.975 17.2377 23.6051 17.3318 23.6051C17.5763 23.6051 18.6202 24.5737 18.6202 24.79C18.6202 24.8559 18.6672 24.9217 18.733 24.9405C18.8835 24.9969 18.8835 26.6333 18.7236 26.6897C18.6672 26.7085 18.6202 26.765 18.6202 26.812C18.6202 26.9154 18.5543 27.0001 18.0559 27.5267L17.7267 27.8841L16.5982 27.9029C15.9775 27.9123 15.3944 27.8935 15.3098 27.8747Z" fill="#FAFAFA"/>
<path d="M55.3541 23.0501C55.3259 23.0125 55.1284 22.9466 54.9215 22.909C54.7146 22.8808 54.5454 22.815 54.5454 22.768C54.5454 22.7209 54.4419 22.6551 54.3197 22.6269C54.1974 22.5987 53.9059 22.3918 53.6708 22.1755C53.4357 21.9498 53.1441 21.677 53.0219 21.5642C52.8996 21.4607 52.7115 21.2068 52.6175 20.9999C52.514 20.8024 52.4012 20.6238 52.373 20.5955C52.3447 20.5673 52.2413 20.3792 52.1378 20.1723C52.0438 19.9654 51.9404 19.7774 51.9027 19.7491C51.8745 19.7209 51.7899 19.4106 51.7241 19.0438C51.6582 18.6865 51.5736 18.3385 51.5266 18.2915C51.4889 18.235 51.4043 17.4827 51.3479 16.6175C51.2538 15.4137 51.2538 14.6802 51.3479 13.4764C51.4043 12.6112 51.4889 11.8589 51.536 11.8024C51.5736 11.7554 51.6582 11.398 51.7241 11.0219C51.7899 10.6551 51.8839 10.3448 51.9309 10.3448C51.9686 10.3448 52.0062 10.2883 52.0062 10.2131C52.0062 10.1379 52.0344 10.0626 52.0814 10.0438C52.119 10.0344 52.2319 9.84633 52.3353 9.63943C52.5799 9.141 52.9654 8.52971 53.0877 8.44507C53.1817 8.38865 53.4451 8.16294 53.9059 7.74915C54.0469 7.62689 54.2068 7.52344 54.2538 7.52344C54.3009 7.52344 54.4043 7.46702 54.4701 7.40119C54.6676 7.19429 55.42 7.05322 56.2758 7.05322C57.1034 7.05322 58.025 7.20369 58.025 7.33535C58.025 7.37297 58.1284 7.4388 58.2601 7.46702C58.3918 7.50463 58.4952 7.57046 58.4952 7.61749C58.4952 7.67391 58.5422 7.71153 58.5893 7.71153C58.6457 7.71153 58.7679 7.78676 58.862 7.8714C58.956 7.96545 59.1629 8.14413 59.3134 8.27579C59.4639 8.40745 59.6896 8.68959 59.8118 8.88708C59.9341 9.09397 60.094 9.31968 60.1598 9.38551C60.2256 9.45134 60.282 9.5736 60.282 9.64883C60.282 9.72407 60.3197 9.7805 60.3667 9.7805C60.4137 9.7805 60.4795 9.93097 60.5078 10.1096C60.5454 10.2883 60.6112 10.4388 60.6582 10.4388C60.7052 10.4388 60.7899 10.6833 60.8463 10.9843C60.9027 11.2758 60.9874 11.5955 61.0344 11.6802C61.0814 11.7648 61.1472 12.1128 61.1849 12.4513C61.2225 12.7899 61.2883 13.072 61.3353 13.072C61.4764 13.072 61.3636 16.8808 61.1943 17.6802C60.9309 18.9498 60.7429 19.6551 60.6582 19.6551C60.6112 19.6551 60.5454 19.815 60.5078 20.0031C60.4701 20.2006 60.3949 20.4075 60.3385 20.4733C60.141 20.699 60.0469 20.8307 59.9153 21.094C59.793 21.3197 59.3228 21.8369 58.9278 22.1661C58.8526 22.2319 58.7773 22.3165 58.7679 22.3542C58.7115 22.4764 57.6958 22.9466 57.4795 22.9466C57.3667 22.9466 57.2726 22.9937 57.2726 23.0407C57.2726 23.1535 55.42 23.1723 55.3541 23.0501ZM56.9717 19.5611C56.9905 19.5046 57.0563 19.467 57.1128 19.467C57.2915 19.467 57.9309 18.7335 57.9309 18.536C57.9309 18.4325 57.9968 18.2821 58.0908 18.1974C58.1849 18.1034 58.2789 17.7554 58.3447 17.2946C58.4012 16.8902 58.4764 16.5517 58.514 16.5517C58.5516 16.5517 58.5893 15.8745 58.5893 15.047C58.5893 14.2194 58.5516 13.5423 58.514 13.5423C58.4764 13.5423 58.3918 13.1943 58.3353 12.7711C58.2789 12.3479 58.1943 11.9811 58.1378 11.9623C58.0814 11.9435 57.9874 11.7742 57.9215 11.5861C57.7805 11.1629 57.2538 10.6363 56.8871 10.5611C56.7366 10.5328 56.6143 10.4764 56.6143 10.4294C56.6143 10.3824 56.4921 10.3448 56.3322 10.3448C56.1817 10.3448 56.0501 10.3918 56.0501 10.4388C56.0501 10.4952 55.956 10.5328 55.8432 10.5328C55.5799 10.5328 54.8275 11.2288 54.8275 11.4733C54.8275 11.5203 54.7899 11.5673 54.7335 11.5673C54.6864 11.5673 54.6206 11.7178 54.583 11.8965C54.5548 12.0752 54.4889 12.2256 54.4513 12.2256C54.3009 12.2256 54.1222 13.7491 54.1222 15.094C54.1316 16.5046 54.2632 17.5861 54.5078 18.047C54.583 18.1786 54.6394 18.3479 54.6394 18.4137C54.6394 18.4701 54.6864 18.5266 54.7335 18.5266C54.7899 18.5266 54.8275 18.5736 54.8275 18.6206C54.8275 18.677 54.8839 18.7805 54.9498 18.8557C55.3824 19.373 55.7021 19.6457 55.8808 19.6833C56.2005 19.7586 56.9341 19.6645 56.9717 19.5611Z" fill="#FAFAFA"/>
<path d="M31.9373 22.702C31.8621 22.5139 31.8621 7.57977 31.9373 7.39168C31.9843 7.26002 32.4545 7.24121 36.1787 7.24121C38.6144 7.24121 40.3354 7.27883 40.3072 7.32585C40.279 7.37287 40.3166 7.4293 40.3918 7.46692C40.5141 7.51394 40.5329 8.44497 40.5329 14.9998C40.5329 19.9842 40.5047 22.5516 40.4389 22.6738C40.3448 22.8337 40.232 22.8525 39.1599 22.8525C38.2664 22.8525 37.9467 22.8243 37.8432 22.7208C37.7304 22.608 37.7116 21.6581 37.7116 16.608V10.6268H36.1128H34.5141V16.5892C34.5141 19.8713 34.4859 22.6174 34.4577 22.702C34.373 22.9277 32.0219 22.9277 31.9373 22.702Z" fill="#FAFAFA"/>
<path d="M42.3767 22.702C42.3015 22.5139 42.3015 7.73024 42.3767 7.45751L42.4332 7.24121H45.2545C46.8344 7.24121 48.0476 7.27883 48.0194 7.32585C47.9912 7.37287 48.1134 7.4293 48.2827 7.45751C48.5742 7.50453 48.7905 7.655 49.4488 8.27569C49.8908 8.68949 50.4081 9.95908 50.4081 10.6268C50.4081 10.8337 50.4551 11.003 50.5021 11.003C50.5586 11.003 50.5962 11.5014 50.5962 12.3196C50.5962 13.0437 50.5586 13.6362 50.5115 13.6362C50.4739 13.6362 50.4081 13.9371 50.3799 14.2945C50.3423 14.7083 50.267 15.0092 50.1824 15.1033C50.0977 15.1785 50.0319 15.3478 50.0319 15.4795C50.0319 15.6017 50.0037 15.7052 49.9567 15.7052C49.9191 15.7052 49.8344 15.8274 49.7686 15.9779C49.6181 16.3258 48.7811 17.1722 48.5084 17.2663C48.3861 17.2945 48.2639 17.3791 48.2263 17.4356C48.1792 17.5014 47.615 17.5484 46.6275 17.5672L45.0946 17.6048L45.1228 20.0876C45.1416 22.1754 45.1228 22.5986 45.01 22.7114C44.8031 22.9277 42.4614 22.9183 42.3767 22.702ZM46.9285 14.2005C46.9285 14.1534 47.0037 14.1064 47.1071 14.1064C47.2952 14.1064 47.5868 13.7396 47.5868 13.4951C47.5868 13.4199 47.6338 13.3541 47.6808 13.3541C47.7372 13.3541 47.7749 12.9967 47.7749 12.4606C47.7749 11.9716 47.7372 11.5672 47.6996 11.5672C47.662 11.5672 47.5868 11.4356 47.5397 11.2663C47.3893 10.7867 47.0319 10.6456 45.988 10.6362L45.0946 10.6268V12.4606V14.2945H46.0162C46.5617 14.2945 46.9285 14.2569 46.9285 14.2005Z" fill="#FAFAFA"/>
<path d="M62.9445 22.7114C62.8505 22.608 62.8223 20.934 62.8223 15.0469C62.8223 8.64246 62.8411 7.48573 62.9539 7.37287C63.0668 7.26002 63.7157 7.24121 66.8285 7.24121C70.2705 7.24121 70.5715 7.25062 70.6843 7.40109C70.8442 7.60798 70.8724 10.166 70.722 10.4481C70.6279 10.6174 70.4962 10.6268 68.0417 10.6268H65.4555V11.8964V13.166H67.7596C69.8003 13.166 70.0825 13.1848 70.2517 13.3259C70.421 13.4763 70.4398 13.608 70.4398 14.8776C70.4398 16.1472 70.421 16.2694 70.2611 16.3635C70.1483 16.4199 69.1796 16.4575 67.769 16.4575H65.4555V17.9622V19.4669H68.0981C70.2611 19.4669 70.7596 19.4951 70.8724 19.5986C70.9759 19.702 71.0041 20.05 71.0041 21.1597C71.0041 22.2694 70.9759 22.6174 70.8724 22.7208C70.6749 22.9183 63.1138 22.9089 62.9445 22.7114Z" fill="#FAFAFA"/>
<path d="M72.5363 22.7868C72.4423 22.7492 72.4141 21.1316 72.4141 15.1222C72.4141 8.652 72.4329 7.48585 72.5457 7.373C72.7432 7.18491 74.8122 7.18491 75.0097 7.373C75.1131 7.48585 75.1413 7.97488 75.1507 9.98742C75.1601 11.8683 75.1884 12.3949 75.2636 12.2069C75.32 12.0564 75.3953 11.9435 75.4423 11.9435C75.4799 11.9435 75.5175 11.8965 75.5175 11.8307C75.5175 11.7743 75.621 11.5862 75.7526 11.4169C75.8843 11.2476 75.9877 11.0501 75.9877 10.9749C75.9877 10.8996 76.0536 10.815 76.1288 10.7774C76.204 10.7492 76.2699 10.6645 76.2699 10.5799C76.2699 10.5047 76.3169 10.4388 76.3639 10.4388C76.4203 10.4388 76.4579 10.373 76.4579 10.2978C76.4579 10.2225 76.4862 10.1567 76.5332 10.1567C76.5708 10.1567 76.7495 9.88397 76.9188 9.54541C77.0974 9.20686 77.2855 8.93413 77.3232 8.93413C77.3608 8.93413 77.3984 8.8683 77.3984 8.79306C77.3984 8.71783 77.4454 8.652 77.4924 8.652C77.5489 8.652 77.5865 8.60497 77.5865 8.53914C77.5865 8.48272 77.6899 8.29463 77.8216 8.12535C77.9532 7.95607 78.0567 7.75858 78.0567 7.69275C78.0567 7.61751 78.1413 7.49526 78.2448 7.40121C78.4047 7.26015 78.6492 7.24134 79.9376 7.24134H81.4329L81.4987 7.57049C81.5457 7.81501 81.5081 7.97488 81.3482 8.2288C81.2354 8.40748 81.1131 8.55795 81.0661 8.55795C81.0285 8.55795 80.9627 8.6614 80.9344 8.79306C80.8968 8.92472 80.831 9.02817 80.784 9.02817C80.7275 9.02817 80.6899 9.07519 80.6899 9.14102C80.6899 9.19745 80.5865 9.38554 80.4548 9.55482C80.3232 9.7241 80.2197 9.90278 80.2197 9.95921C80.2197 10.0156 80.1821 10.0627 80.1257 10.0627C80.0786 10.0627 80.0128 10.1661 79.9752 10.2978C79.947 10.4294 79.8811 10.5329 79.8435 10.5329C79.7965 10.5329 79.6648 10.6927 79.552 10.8902C79.4297 11.0783 79.2793 11.2946 79.2134 11.3605C79.1476 11.4263 79.0912 11.5485 79.0912 11.6238C79.0912 11.6896 78.9689 11.8777 78.809 12.0188C78.6586 12.1692 78.5269 12.3385 78.5269 12.3949C78.5269 12.4514 78.3388 12.7711 78.1037 13.1003C77.6993 13.6833 77.5959 13.9655 77.7558 14.0313C77.8404 14.0595 78.4705 15.3385 78.5739 15.6865C78.6021 15.7993 78.6774 15.8934 78.7244 15.8934C78.7714 15.8934 78.809 15.9592 78.809 16.0344C78.809 16.1097 78.8561 16.1755 78.9031 16.1755C78.9595 16.1755 78.9971 16.279 78.9971 16.4012C78.9971 16.5329 79.0536 16.6927 79.1288 16.768C79.204 16.8338 79.3169 17.0783 79.3827 17.2852C79.4485 17.5015 79.5332 17.6802 79.5708 17.6802C79.6084 17.6802 79.6648 17.8119 79.7025 17.9623C79.7401 18.1222 79.7965 18.2445 79.8435 18.2445C79.8811 18.2445 79.947 18.3573 79.9846 18.4984C80.0128 18.6395 80.0786 18.7805 80.1163 18.8087C80.2009 18.8746 80.6899 19.9749 80.6899 20.1159C80.6899 20.1724 80.7275 20.2194 80.7746 20.2194C80.8122 20.2194 80.925 20.4075 81.0097 20.6426C81.1037 20.8777 81.2166 21.0658 81.2636 21.0658C81.3106 21.0658 81.3953 21.2539 81.4517 21.489C81.5081 21.7241 81.6021 21.9122 81.6492 21.9122C81.6962 21.9122 81.7056 21.9592 81.6774 22.0062C81.6492 22.0627 81.668 22.1003 81.715 22.1003C81.8467 22.1003 81.8467 22.4388 81.7244 22.6739C81.6304 22.8432 81.5081 22.8526 80.0786 22.8526C78.5927 22.8526 78.5269 22.8432 78.5269 22.6645C78.5269 22.5611 78.4893 22.4764 78.4329 22.4764C78.3858 22.4764 78.3388 22.3918 78.3388 22.2884C78.3388 22.1849 78.3012 22.1003 78.2448 22.1003C78.1978 22.1003 78.1507 22.0532 78.1507 22.0062C78.1507 21.8181 77.389 20.1912 77.2855 20.1442C77.2385 20.1253 77.2103 20.0501 77.2103 19.9749C77.2103 19.8996 77.1257 19.6833 77.0222 19.4953C76.9188 19.2978 76.8341 19.0721 76.8341 18.9874C76.8341 18.9028 76.7777 18.7805 76.7025 18.7241C76.6272 18.6583 76.5332 18.4796 76.505 18.3291C76.4674 18.1786 76.4109 18.0564 76.3639 18.0564C76.3169 18.0564 76.2605 17.9341 76.2228 17.7743C76.1852 17.6238 76.1194 17.4921 76.0724 17.4921C76.0253 17.4921 75.9877 17.4263 75.9877 17.3417C75.9877 17.0877 75.7996 16.8338 75.6586 16.8902C75.5833 16.9279 75.5175 17.0031 75.5175 17.0783C75.5175 17.1536 75.4893 17.21 75.4517 17.21C75.2072 17.21 75.1413 17.8119 75.1413 20.1536C75.1413 22.1379 75.1131 22.6081 75.0097 22.721C74.9062 22.8244 74.6053 22.8526 73.7589 22.8432C73.1476 22.8432 72.5927 22.815 72.5363 22.7868Z" fill="#FAFAFA"/>
<path d="M84.7894 22.702C84.6484 22.5704 84.639 21.9309 84.6578 16.5892L84.686 10.6268H83.3223C81.5449 10.6268 81.6295 10.7114 81.6295 8.934C81.6295 7.73964 81.6484 7.59858 81.8176 7.4293C81.9963 7.25062 82.128 7.24121 86.106 7.24121C89.5292 7.24121 90.2252 7.26002 90.338 7.37287C90.4415 7.47632 90.4697 7.83369 90.4697 9.00924C90.4697 10.2976 90.4509 10.5233 90.3192 10.5704C90.2346 10.5986 89.5574 10.6268 88.8145 10.6268H87.4603V16.608C87.4603 21.6581 87.4415 22.608 87.3286 22.7208C87.1217 22.9183 84.9963 22.9089 84.7894 22.702Z" fill="#FAFAFA"/>
<path d="M93.7142 22.7771C93.6577 22.7301 93.432 22.6455 93.2063 22.5796C92.9806 22.5138 92.6985 22.3727 92.5762 22.2599C91.5229 21.2818 91.3725 21.0937 91.222 20.6329C91.1562 20.426 91.0715 20.2285 91.0339 20.1721C90.9305 20.0404 90.8458 19.5138 90.7518 18.4229C90.6389 17.0687 90.5919 17.1157 92.153 17.1157C93.5731 17.1157 93.6577 17.1533 93.6671 17.7928C93.6671 18.4229 93.8552 19.0342 94.1374 19.3633C94.3819 19.6361 94.4759 19.6737 94.8803 19.6831C95.2753 19.6925 95.3787 19.6455 95.6233 19.401C95.7831 19.2505 95.9806 18.9589 96.0559 18.7615C96.2157 18.3759 96.2628 17.1157 96.1123 17.1157C96.0653 17.1157 95.9994 16.9746 95.9712 16.7959C95.9148 16.5326 95.8396 16.448 95.4728 16.2881C95.2283 16.1846 94.7957 16.0718 94.5135 16.0342C93.5919 15.9213 93.6671 16.053 93.6671 14.5389V13.1941L94.0245 13.1282C94.2126 13.1 94.5512 13.0718 94.7769 13.0718C95.0684 13.0718 95.2471 13.006 95.454 12.8179C95.6139 12.6862 95.7361 12.5169 95.7361 12.4417C95.7361 12.3759 95.7831 12.3194 95.8302 12.3194C95.943 12.3194 95.9618 10.937 95.8584 10.89C95.8113 10.8806 95.7079 10.7395 95.6233 10.5796C95.5292 10.401 95.3787 10.2881 95.2283 10.2693C95.0966 10.2505 94.9838 10.1941 94.9838 10.147C94.9838 10.1 94.9179 10.0624 94.8427 10.0624C94.7675 10.0624 94.7016 10.1094 94.7016 10.1564C94.7016 10.2129 94.617 10.2505 94.5135 10.2505C94.4195 10.2505 94.2784 10.3163 94.2126 10.3915C94.1468 10.4762 94.0339 10.5984 93.9681 10.6737C93.9023 10.7489 93.827 11.0969 93.7894 11.4448C93.7048 12.3947 93.6765 12.4135 92.2565 12.4135C90.78 12.4135 90.7706 12.4135 90.9211 11.1345C91.0057 10.3351 91.2784 9.2254 91.4101 9.12195C91.4477 9.09374 91.5888 8.89625 91.7204 8.67995C92.0402 8.18152 92.6421 7.56083 92.896 7.47619C93.0088 7.44797 93.1029 7.38214 93.1029 7.33512C93.1029 7.19405 94.0527 7.03418 94.8709 7.03418C95.7361 7.03418 96.7706 7.19405 96.7706 7.33512C96.7706 7.38214 96.8646 7.44797 96.9775 7.48559C97.0903 7.5138 97.269 7.63606 97.3913 7.74891C97.5041 7.85236 97.7392 8.07807 97.9179 8.23794C98.0966 8.39782 98.2753 8.63293 98.3035 8.75518C98.3317 8.87744 98.4446 9.07493 98.548 9.18778C98.6609 9.30064 98.7643 9.59217 98.8019 9.8649C98.8396 10.1282 98.896 10.3445 98.943 10.3445C98.99 10.3445 99.0276 10.7677 99.0276 11.285C99.0276 11.8022 98.99 12.2254 98.943 12.2254C98.9054 12.2254 98.8396 12.4041 98.8113 12.6204C98.7831 12.8461 98.7079 13.0342 98.6609 13.053C98.6044 13.0718 98.5574 13.1658 98.5574 13.2599C98.5574 13.3445 98.4916 13.4762 98.4164 13.542C98.3411 13.6078 98.2753 13.7113 98.2753 13.7771C98.2753 13.843 98.2095 13.9182 98.1342 13.9558C97.9085 14.0404 97.9649 14.2191 98.3599 14.6235C98.5574 14.8304 98.7455 15.1031 98.7831 15.216C98.8207 15.3288 98.8866 15.4229 98.9242 15.4229C98.9712 15.4229 99.0559 15.752 99.1123 16.1564C99.1781 16.5514 99.2722 17.0781 99.3286 17.332C99.3756 17.5765 99.3944 17.8492 99.3662 17.9339C99.3286 18.0279 99.2628 18.4135 99.2157 18.8085C99.1123 19.589 98.7925 20.5671 98.5574 20.7834C98.4822 20.8586 98.3599 21.0467 98.2941 21.1972C98.153 21.5169 97.711 22.006 97.5606 22.006C97.5041 22.006 97.3819 22.1094 97.2784 22.2317C97.175 22.3821 96.9399 22.5044 96.6577 22.5702C96.4132 22.6361 96.1781 22.7207 96.1499 22.7677C96.0841 22.8712 93.827 22.8806 93.7142 22.7771Z" fill="#FAFAFA"/>
<path d="M102.648 22.7678C102.592 22.7208 102.385 22.6362 102.188 22.5704C101.981 22.5045 101.708 22.3447 101.576 22.2224C100.937 21.6299 100.626 21.2914 100.626 21.1879C100.626 21.1221 100.589 21.0657 100.532 21.0657C100.485 21.0657 100.438 20.9998 100.438 20.9246C100.438 20.8494 100.401 20.7835 100.354 20.7835C100.307 20.7835 100.241 20.6707 100.203 20.5296C100.175 20.3885 100.109 20.2475 100.072 20.2193C100.025 20.191 99.9211 19.8807 99.8364 19.5139C99.6765 18.8932 99.6295 18.5923 99.385 17.1158C99.2157 16.0343 99.4414 11.5484 99.6859 11.2381C99.7236 11.191 99.8082 10.8619 99.874 10.5139C99.9399 10.1566 100.025 9.87443 100.072 9.87443C100.119 9.87443 100.156 9.82741 100.156 9.77098C100.156 9.5923 100.467 8.98102 100.598 8.90578C100.664 8.86816 100.72 8.77412 100.72 8.69888C100.72 8.54841 101.332 7.89951 101.473 7.89951C101.52 7.89951 101.586 7.81487 101.614 7.71142C101.642 7.60797 101.774 7.49512 101.905 7.46691C102.028 7.4387 102.131 7.37286 102.131 7.33525C102.131 7.20359 103.109 7.0249 103.824 7.0249C104.567 7.0249 105.63 7.22239 105.564 7.33525C105.535 7.38227 105.62 7.4387 105.742 7.46691C106.025 7.53274 106.918 8.43556 106.984 8.71769C107.021 8.83995 107.068 8.93399 107.106 8.93399C107.172 8.93399 107.313 9.23493 107.586 9.94026C107.642 10.1001 107.67 10.2788 107.642 10.3352C107.604 10.3823 107.623 10.4481 107.68 10.4857C107.727 10.5139 107.774 10.7208 107.774 10.9465C107.774 11.6048 107.642 11.6613 106.194 11.6613H104.952L104.896 11.4262C104.868 11.2945 104.802 11.191 104.755 11.191C104.708 11.191 104.67 11.0876 104.67 10.9559C104.67 10.8243 104.633 10.7208 104.595 10.7208C104.548 10.7208 104.463 10.6174 104.407 10.4857C104.341 10.3541 104.219 10.2506 104.115 10.2506C104.012 10.2506 103.909 10.1942 103.88 10.1378C103.833 10.0437 103.814 10.0437 103.767 10.1378C103.739 10.1942 103.617 10.2506 103.495 10.2506C103.354 10.2506 103.203 10.3729 103.034 10.6268C102.902 10.8337 102.789 11.0406 102.789 11.097C102.789 11.144 102.742 11.191 102.686 11.191C102.639 11.191 102.62 11.2381 102.648 11.2851C102.686 11.3415 102.667 11.4356 102.62 11.5014C102.573 11.5672 102.507 11.8399 102.47 12.1127C102.404 12.6017 102.413 12.6111 102.62 12.5547C102.742 12.5171 102.959 12.4324 103.109 12.3572C103.41 12.2067 105.14 12.1691 105.14 12.3102C105.14 12.3572 105.319 12.4324 105.545 12.4889C106.072 12.6299 107.144 13.6644 107.266 14.1628C107.294 14.2851 107.36 14.3885 107.407 14.3885C107.454 14.3885 107.492 14.4356 107.492 14.492C107.492 14.5484 107.557 14.7271 107.633 14.887C107.708 15.0562 107.811 15.423 107.858 15.7052C107.924 16.1095 107.943 15.8368 107.952 14.4168C107.952 13.4293 107.999 12.5923 108.046 12.5641C108.084 12.5359 108.15 12.1691 108.188 11.7459C108.282 10.6174 108.724 9.13149 109.072 8.76471C109.128 8.69888 109.184 8.59544 109.184 8.53901C109.184 8.38854 110.2 7.42929 110.36 7.42929C110.435 7.42929 110.501 7.39167 110.501 7.34465C110.501 7.19418 111.47 7.0249 112.288 7.0249C113.144 7.03431 113.924 7.17537 114.131 7.36346C114.413 7.61738 114.535 7.71142 114.592 7.71142C114.771 7.71142 115.391 8.5296 115.579 8.99982C115.702 9.30076 115.833 9.5829 115.88 9.63932C115.918 9.68634 115.956 9.81801 115.956 9.94026C115.956 10.0625 115.993 10.1566 116.04 10.1566C116.087 10.1566 116.153 10.4105 116.191 10.7208C116.228 11.0312 116.294 11.2851 116.341 11.2851C116.388 11.2851 116.426 12.818 116.426 14.9058C116.426 16.8995 116.388 18.5265 116.341 18.5265C116.303 18.5265 116.238 18.7804 116.2 19.0907C116.162 19.4011 116.097 19.655 116.05 19.655C115.993 19.655 115.956 19.7867 115.956 19.9371C115.956 20.097 115.918 20.2193 115.88 20.2193C115.833 20.2193 115.749 20.3979 115.683 20.6142C115.523 21.1409 115.203 21.6205 114.78 21.9591C114.592 22.1189 114.376 22.2882 114.31 22.3541C113.981 22.6644 113.181 22.8525 112.194 22.8525C111.639 22.8525 111.159 22.8149 111.112 22.7678C111.056 22.7208 110.849 22.6362 110.651 22.5704C110.445 22.5045 110.181 22.3635 110.068 22.2506C109.946 22.1472 109.796 22.0061 109.73 21.9497C109.664 21.8932 109.504 21.7146 109.372 21.5453C109.241 21.376 109.081 21.1785 109.025 21.1127C108.959 21.0374 108.902 20.9246 108.902 20.8588C108.902 20.7929 108.846 20.6519 108.771 20.5484C108.582 20.2663 108.244 18.865 108.178 18.0562C108.112 17.1534 107.971 16.8713 107.962 17.6142C107.962 18.2726 107.783 19.4857 107.68 19.5986C107.633 19.6456 107.623 19.7396 107.651 19.8055C107.68 19.8807 107.651 19.9371 107.595 19.9371C107.539 19.9371 107.492 20.0406 107.492 20.1722C107.492 20.3039 107.454 20.4073 107.398 20.4073C107.351 20.4073 107.285 20.5108 107.247 20.6425C107.219 20.7741 107.162 20.8776 107.125 20.8776C107.087 20.8776 107.003 21.0186 106.946 21.1973C106.88 21.376 106.673 21.6393 106.495 21.7898C106.307 21.9309 106.062 22.1472 105.94 22.26C105.818 22.3823 105.526 22.5233 105.291 22.5892C105.056 22.655 104.858 22.7396 104.858 22.7773C104.858 22.8807 102.752 22.8713 102.648 22.7678ZM104.407 19.3352C104.548 19.1754 104.67 18.9967 104.67 18.9309C104.67 18.8744 104.727 18.8086 104.793 18.7804C104.877 18.7522 104.905 18.423 104.905 17.539C104.905 16.655 104.877 16.3258 104.793 16.2882C104.727 16.2694 104.67 16.2036 104.67 16.1378C104.67 16.0813 104.548 15.8838 104.407 15.7146C104.172 15.4324 104.097 15.4042 103.645 15.4042C103.184 15.4042 103.119 15.4324 102.836 15.7616C102.47 16.1848 102.413 16.4105 102.413 17.3885C102.413 18.376 102.498 18.771 102.752 19.0437C102.874 19.1848 102.977 19.307 102.977 19.3352C102.977 19.4481 103.241 19.6362 103.457 19.6738C103.843 19.749 104.144 19.6362 104.407 19.3352ZM112.805 19.5233C112.965 19.3541 113.134 18.912 113.134 18.6675C113.134 18.5453 113.191 18.4324 113.256 18.4042C113.407 18.3572 113.426 11.4073 113.266 11.3039C113.209 11.2663 113.115 11.0406 113.04 10.7867C112.946 10.4293 112.871 10.3258 112.673 10.2788C112.542 10.2506 112.391 10.1754 112.354 10.1189C112.297 10.0437 112.26 10.0531 112.222 10.1378C112.203 10.1942 112.1 10.2506 112.006 10.2506C111.677 10.2506 111.545 10.3635 111.479 10.6832C111.451 10.8619 111.394 11.003 111.357 11.003C111.319 11.003 111.282 11.0782 111.272 11.1722C111.272 11.2569 111.216 11.5672 111.169 11.8494C111.056 12.5077 111.056 17.0782 111.169 17.8211C111.357 19.0437 111.62 19.6268 111.996 19.6832C112.307 19.7302 112.683 19.655 112.805 19.5233Z" fill="#FAFAFA"/>
</svg>
