<svg width="56" height="28" viewBox="0 0 56 28" fill="none" xmlns="http://www.w3.org/2000/svg">
<path d="M7.65039 15.2578H4.87305V10.6875H7.65039C8.93945 10.6875 9.93555 10.4355 10.6387 9.93164C11.3535 9.41602 11.7109 8.69531 11.7109 7.76953C11.7109 6.79688 11.3535 6.04102 10.6387 5.50195C9.93555 4.95117 8.93945 4.67578 7.65039 4.67578C6.66602 4.67578 5.61133 4.79883 4.48633 5.04492C3.36133 5.29102 2.19531 5.64844 0.988281 6.11719V1.40625C2.19531 1.04297 3.38477 0.767578 4.55664 0.580078C5.72852 0.380859 6.85352 0.28125 7.93164 0.28125C10.6973 0.28125 12.8535 0.884766 14.4004 2.0918C15.9473 3.29883 16.7207 4.96289 16.7207 7.08398C16.7207 8.64258 16.2754 9.91992 15.3848 10.916C14.4941 11.9004 13.2227 12.5449 11.5703 12.8496C13.4453 13.1777 14.875 13.9277 15.8594 15.0996C16.8438 16.2598 17.3359 17.7891 17.3359 19.6875C17.3359 22.2305 16.5215 24.1699 14.8926 25.5059C13.2637 26.8418 10.8965 27.5098 7.79102 27.5098C6.4668 27.5098 5.16016 27.3984 3.87109 27.1758C2.59375 26.9531 1.36914 26.6309 0.197266 26.209V21.3926C1.29883 21.9434 2.48828 22.3652 3.76562 22.6582C5.04297 22.9395 6.38477 23.0801 7.79102 23.0801C9.19727 23.0801 10.3105 22.7578 11.1309 22.1133C11.9512 21.457 12.3613 20.5781 12.3613 19.4766C12.3613 18.1289 11.9512 17.0918 11.1309 16.3652C10.3105 15.627 9.15039 15.2578 7.65039 15.2578ZM28.1141 13.8516C26.9891 13.8516 26.1278 14.2617 25.5302 15.082C24.9442 15.8906 24.6512 17.0684 24.6512 18.6152C24.6512 20.1504 24.9442 21.3281 25.5302 22.1484C26.1278 22.957 26.9891 23.3613 28.1141 23.3613C29.2391 23.3613 30.1005 22.957 30.6981 22.1484C31.3075 21.3281 31.6122 20.1504 31.6122 18.6152C31.6122 17.0801 31.3075 15.9023 30.6981 15.082C30.1005 14.2617 29.2391 13.8516 28.1141 13.8516ZM34.9169 1.37109V6.08203C33.9911 5.55469 33.1005 5.16211 32.245 4.9043C31.4012 4.63477 30.5868 4.5 29.8016 4.5C27.9266 4.5 26.497 5.13281 25.5126 6.39844C24.5399 7.65234 24.0302 9.50977 23.9833 11.9707C24.5341 11.209 25.2372 10.6406 26.0927 10.2656C26.9481 9.87891 27.9559 9.68555 29.1161 9.68555C31.4833 9.68555 33.3114 10.4355 34.6005 11.9355C35.8895 13.4238 36.5341 15.5391 36.5341 18.2812C36.5341 21.2227 35.8075 23.502 34.3544 25.1191C32.913 26.7363 30.8798 27.5449 28.2548 27.5449C25.0555 27.5449 22.7294 26.4727 21.2762 24.3281C19.8348 22.1836 19.1141 18.7207 19.1141 13.9395C19.1141 9.39258 19.9989 5.98828 21.7684 3.72656C23.538 1.45313 26.1923 0.316406 29.7313 0.316406C30.5516 0.316406 31.3954 0.404297 32.2626 0.580078C33.1415 0.755859 34.0262 1.01953 34.9169 1.37109ZM46.4509 4.93945C45.1267 4.93945 44.1599 5.64844 43.5505 7.06641C42.9412 8.47266 42.6365 10.752 42.6365 13.9043C42.6365 17.0449 42.9412 19.3242 43.5505 20.7422C44.1599 22.1484 45.1267 22.8516 46.4509 22.8516C47.7869 22.8516 48.7595 22.1484 49.3689 20.7422C49.9783 19.3242 50.283 17.0449 50.283 13.9043C50.283 10.752 49.9783 8.47266 49.3689 7.06641C48.7595 5.64844 47.7869 4.93945 46.4509 4.93945ZM37.24 13.9043C37.24 9.41602 38.0134 6.02344 39.5603 3.72656C41.1189 1.42969 43.4158 0.28125 46.4509 0.28125C49.4978 0.28125 51.7947 1.42969 53.3416 3.72656C54.9002 6.02344 55.6795 9.41602 55.6795 13.9043C55.6795 18.3809 54.9002 21.7676 53.3416 24.0645C51.7947 26.3613 49.4978 27.5098 46.4509 27.5098C43.4158 27.5098 41.1189 26.3613 39.5603 24.0645C38.0134 21.7676 37.24 18.3809 37.24 13.9043Z" fill="url(#paint0_linear)"/>
<defs>
<linearGradient id="paint0_linear" x1="3.66149e-09" y1="14" x2="56" y2="14" gradientUnits="userSpaceOnUse">
<stop stop-color="#DB00FF"/>
<stop offset="1" stop-color="#FF1841"/>
</linearGradient>
</defs>
</svg>
