<svg width="47" height="45" viewBox="0 0 47 45" fill="none" xmlns="http://www.w3.org/2000/svg">
<path d="M0 7.84229C0 5.08087 2.23858 2.84229 5 2.84229H31.1651C33.9265 2.84229 36.1651 5.08086 36.1651 7.84229V40.0002C36.1651 42.7616 33.9265 45.0002 31.1651 45.0002H5C2.23857 45.0002 0 42.7616 0 40.0002V7.84229Z" fill="black"/>
<path d="M1.90234 8.73682C1.90234 6.52768 3.6932 4.73682 5.90234 4.73682H30.2606C32.4697 4.73682 34.2606 6.52768 34.2606 8.73682V39.1052C34.2606 41.3144 32.4697 43.1052 30.2606 43.1052H5.90234C3.6932 43.1052 1.90234 41.3144 1.90234 39.1052V8.73682Z" fill="#FAFAFA"/>
<path d="M9.04102 3.78947C9.04102 1.6966 10.7376 0 12.8305 0H23.3341C25.427 0 27.1236 1.6966 27.1236 3.78947C27.1236 5.88234 25.427 7.57895 23.3341 7.57895H12.8305C10.7376 7.57895 9.04102 5.88234 9.04102 3.78947Z" fill="black"/>
<path d="M6.18555 13.2633C6.18555 12.4785 6.82177 11.8423 7.6066 11.8423H28.5573C29.3422 11.8423 29.9784 12.4785 29.9784 13.2633C29.9784 14.0482 29.3422 14.6844 28.5573 14.6844H7.6066C6.82177 14.6844 6.18555 14.0482 6.18555 13.2633Z" fill="black"/>
<path d="M6.18555 21.7897C6.18555 21.0049 6.82177 20.3687 7.6066 20.3687H28.5573C29.3422 20.3687 29.9784 21.0049 29.9784 21.7897C29.9784 22.5745 29.3422 23.2108 28.5573 23.2108H7.6066C6.82177 23.2108 6.18555 22.5745 6.18555 21.7897Z" fill="black"/>
<path d="M6.18555 30.7897C6.18555 30.0049 6.82177 29.3687 7.6066 29.3687H28.5573C29.3422 29.3687 29.9784 30.0049 29.9784 30.7897C29.9784 31.5745 29.3422 32.2108 28.5573 32.2108H7.6066C6.82177 32.2108 6.18555 31.5745 6.18555 30.7897Z" fill="black"/>
<path d="M22.1588 33.3947L21.1997 34.5479L22.3572 35.5019L26.3732 38.8115L27.5308 39.7655L28.4899 38.6122L43.6629 20.3689L44.622 19.2156L43.4645 18.2616L39.4485 14.952L38.291 13.998L37.3318 15.1513L22.1588 33.3947Z" fill="#001AFF" stroke="#FAFAFA" stroke-width="3"/>
<path d="M21.7912 40.1181L22.4081 35.3881L26.359 38.6772L21.7912 40.1181Z" fill="#001AFF"/>
<rect width="5.4946" height="5.21569" rx="2.60785" transform="matrix(0.647274 -0.762257 0.765171 0.643828 37.4531 17.3335)" fill="#001AFF"/>
<rect width="5.24215" height="1.43302" transform="matrix(0.767469 0.641086 -0.644536 0.764574 39.0879 15.3721)" fill="#FAFAFA"/>
</svg>
