<svg width="50" height="45" viewBox="0 0 50 45" fill="none" xmlns="http://www.w3.org/2000/svg">
<path d="M0 7.84229C0 5.08087 2.23858 2.84229 5 2.84229H31.1651C33.9265 2.84229 36.1651 5.08086 36.1651 7.84229V40.0002C36.1651 42.7616 33.9265 45.0002 31.1651 45.0002H5C2.23857 45.0002 0 42.7616 0 40.0002V7.84229Z" fill="black"/>
<path d="M1.90332 8.73682C1.90332 6.52768 3.69418 4.73682 5.90332 4.73682H30.2616C32.4707 4.73682 34.2616 6.52768 34.2616 8.73682V39.1052C34.2616 41.3144 32.4707 43.1052 30.2616 43.1052H5.90332C3.69418 43.1052 1.90332 41.3144 1.90332 39.1052V8.73682Z" fill="#FAFAFA"/>
<path d="M9.04102 3.78947C9.04102 1.6966 10.7376 0 12.8305 0H23.3341C25.427 0 27.1236 1.6966 27.1236 3.78947C27.1236 5.88234 25.427 7.57895 23.3341 7.57895H12.8305C10.7376 7.57895 9.04102 5.88234 9.04102 3.78947Z" fill="black"/>
<path d="M6.18652 13.2628C6.18652 12.478 6.82275 11.8418 7.60758 11.8418H28.5583C29.3431 11.8418 29.9794 12.478 29.9794 13.2628C29.9794 14.0477 29.3431 14.6839 28.5583 14.6839H7.60758C6.82275 14.6839 6.18652 14.0477 6.18652 13.2628Z" fill="black"/>
<path d="M6.18652 21.7897C6.18652 21.0049 6.82275 20.3687 7.60758 20.3687H28.5583C29.3431 20.3687 29.9794 21.0049 29.9794 21.7897C29.9794 22.5745 29.3431 23.2108 28.5583 23.2108H7.60758C6.82275 23.2108 6.18652 22.5745 6.18652 21.7897Z" fill="black"/>
<path d="M6.18652 30.7897C6.18652 30.0049 6.82275 29.3687 7.60758 29.3687H28.5583C29.3431 29.3687 29.9794 30.0049 29.9794 30.7897C29.9794 31.5745 29.3431 32.2108 28.5583 32.2108H7.60758C6.82275 32.2108 6.18652 31.5745 6.18652 30.7897Z" fill="black"/>
<path d="M46.3767 18.2611L47.358 17.1266L46.2235 16.1453L42.2888 12.7418L41.1402 11.7483L40.1609 12.9092L28.5751 26.6441L23.9489 22.9123L23.9467 22.9105L19.5526 19.3522L18.4215 18.4363L17.4719 19.5393L14.2382 23.2951L13.2334 24.4622L14.4266 25.436L28.3891 36.8292L29.5184 37.7506L30.4719 36.6483L46.3767 18.2611Z" fill="#FF1841" stroke="#FAFAFA" stroke-width="3"/>
</svg>
