<svg width="76" height="70" viewBox="0 0 76 70" fill="none" xmlns="http://www.w3.org/2000/svg">
<path d="M70.6511 36.5376C66.7978 32.8842 62.7604 30.63 58.5326 30.5054C54.2592 30.3795 50.1619 32.4365 46.236 36.5966C43.157 39.8592 42.3581 43.9079 42.5198 47.5827C42.6808 51.2424 43.7949 54.6631 44.7032 56.9023C45.6462 59.2271 47.9293 60.5 50.2655 60.5H66.8045C69.2442 60.5 71.5964 59.1131 72.4911 56.6715C73.3483 54.3322 74.3861 50.8019 74.4913 47.1441C74.5965 43.4852 73.7682 39.493 70.6511 36.5376Z" fill="#E5E5E5" stroke="#F0F1F6" stroke-width="3"/>
<circle cx="58.5" cy="21.5" r="13" fill="#E5E5E5" stroke="#F0F1F6" stroke-width="3"/>
<path d="M29.6511 36.5376C25.7978 32.8841 21.7604 30.63 17.5326 30.5054C13.2592 30.3795 9.16189 32.4364 5.23597 36.5965C2.157 39.8592 1.35808 43.9078 1.51979 47.5827C1.68083 51.2424 2.79495 54.6631 3.7032 56.9023C4.64615 59.2271 6.92934 60.5 9.26551 60.5H25.8045C28.2442 60.5 30.5964 59.1131 31.4911 56.6715C32.3483 54.3322 33.3861 50.8019 33.4913 47.1441C33.5965 43.4852 32.7682 39.493 29.6511 36.5376Z" fill="#E5E5E5" stroke="#F0F1F6" stroke-width="3"/>
<circle cx="17.5" cy="21.5" r="13" fill="#E5E5E5" stroke="#F0F1F6" stroke-width="3"/>
<path d="M53.7271 37.2128C48.8494 32.5141 43.7886 29.6643 38.5301 29.5068C33.2245 29.348 28.1008 31.9373 23.1456 37.2722C19.1371 41.5879 18.2315 46.9965 18.5629 51.8614C18.8936 56.7176 20.4622 61.1966 21.6078 63.9104C22.5797 66.2124 24.8497 67.5 27.2059 67.5H49.9253C52.3837 67.5 54.723 66.0997 55.6466 63.6789C56.7326 60.8326 58.2036 56.1876 58.4608 51.3137C58.7175 46.4487 57.7716 41.1089 53.7271 37.2128Z" fill="#E5E5E5" stroke="#F0F1F6" stroke-width="3"/>
<circle cx="39" cy="19" r="16.5" fill="#E5E5E5" stroke="#F0F1F6" stroke-width="3"/>
</svg>
